<svg width="1603" height="1534" viewBox="0 0 1603 1534" fill="none" xmlns="http://www.w3.org/2000/svg">
<path d="M1603 0H0V1506H1603V0Z" fill="#F2F2F2"/>
<path d="M420.265 1164.38C354.086 1122.11 365.798 1659.7 618.356 1423.65C870.915 1187.6 947.112 1560.76 1063.63 1532.46C1180.15 1504.15 1321.7 1409.92 1187.45 1258.43C1053.2 1106.93 486.444 1206.66 420.265 1164.38Z" fill="#D5E6FD"/>
<path d="M0 0H1600V576.5L0 1331V0Z" fill="#FFE598"/>
<path d="M1596.83 788.64C1664.16 771.89 1127.76 436.33 1264 754C1400.23 1071.68 1001.68 883.74 984.79 978.83C967.91 1073.92 1006.6 1227.66 1208.21 1235.67C1409.81 1243.68 1529.5 805.38 1596.83 788.64Z" fill="#E2EFFF"/>
</svg>
